solid traffic_cone
  facet normal 0.957474484202549 0.0627561932518696 0.2816101424125144
    outer loop
      vertex 0.1 0.0 0.0
      vertex 0.09914448613738104 0.013052619222005159 0.0
      vertex 0.0 0.0 0.34
    endloop
  endfacet
  facet normal 0.9410918303157649 0.18719480388976345 0.2816101424125145
    outer loop
      vertex 0.09914448613738104 0.013052619222005159 0.0
      vertex 0.09659258262890684 0.025881904510252074 0.0
      vertex 0.0 0.0 0.34
    endloop
  endfacet
  facet normal 0.9086068342923286 0.30843045953290066 0.2816101424125145
    outer loop
      vertex 0.09659258262890684 0.025881904510252074 0.0
      vertex 0.09238795325112868 0.03826834323650898 0.0
      vertex 0.0 0.0 0.34
    endloop
  endfacet
  facet normal 0.8605753234207444 0.42438878450035006 0.2816101424125144
    outer loop
      vertex 0.09238795325112868 0.03826834323650898 0.0
      vertex 0.08660254037844388 0.049999999999999996 0.0
      vertex 0.0 0.0 0.34
    endloop
  endfacet
  facet normal 0.7978191301688747 0.5330856997021993 0.2816101424125145
    outer loop
      vertex 0.08660254037844388 0.049999999999999996 0.0
      vertex 0.07933533402912352 0.060876142900872066 0.0
      vertex 0.0 0.0 0.34
    endloop
  endfacet
  facet normal 0.7214120304025649 0.6326613707828637 0.2816101424125144
    outer loop
      vertex 0.07933533402912352 0.060876142900872066 0.0
      vertex 0.07071067811865477 0.07071067811865475 0.0
      vertex 0.0 0.0 0.34
    endloop
  endfacet
  facet normal 0.6326613707828638 0.7214120304025649 0.2816101424125144
    outer loop
      vertex 0.07071067811865477 0.07071067811865475 0.0
      vertex 0.060876142900872066 0.07933533402912352 0.0
      vertex 0.0 0.0 0.34
    endloop
  endfacet
  facet normal 0.5330856997021993 0.7978191301688747 0.2816101424125144
    outer loop
      vertex 0.060876142900872066 0.07933533402912352 0.0
      vertex 0.05000000000000002 0.08660254037844387 0.0
      vertex 0.0 0.0 0.34
    endloop
  endfacet
  facet normal 0.4243887845003505 0.8605753234207442 0.2816101424125145
    outer loop
      vertex 0.05000000000000002 0.08660254037844387 0.0
      vertex 0.03826834323650899 0.09238795325112868 0.0
      vertex 0.0 0.0 0.34
    endloop
  endfacet
  facet normal 0.3084304595329005 0.9086068342923287 0.2816101424125145
    outer loop
      vertex 0.03826834323650899 0.09238795325112868 0.0
      vertex 0.025881904510252074 0.09659258262890684 0.0
      vertex 0.0 0.0 0.34
    endloop
  endfacet
  facet normal 0.18719480388976362 0.9410918303157648 0.2816101424125144
    outer loop
      vertex 0.025881904510252074 0.09659258262890684 0.0
      vertex 0.013052619222005173 0.09914448613738104 0.0
      vertex 0.0 0.0 0.34
    endloop
  endfacet
  facet normal 0.06275619325186955 0.9574744842025491 0.28161014241251436
    outer loop
      vertex 0.013052619222005173 0.09914448613738104 0.0
      vertex 6.123233995736766e-18 0.1 0.0
      vertex 0.0 0.0 0.34
    endloop
  endfacet
  facet normal -0.06275619325186955 0.9574744842025491 0.2816101424125144
    outer loop
      vertex 6.123233995736766e-18 0.1 0.0
      vertex -0.01305261922200516 0.09914448613738104 0.0
      vertex 0.0 0.0 0.34
    endloop
  endfacet
  facet normal -0.18719480388976362 0.9410918303157648 0.2816101424125144
    outer loop
      vertex -0.01305261922200516 0.09914448613738104 0.0
      vertex -0.025881904510252064 0.09659258262890684 0.0
      vertex 0.0 0.0 0.34
    endloop
  endfacet
  facet normal -0.30843045953290016 0.9086068342923287 0.2816101424125144
    outer loop
      vertex -0.025881904510252064 0.09659258262890684 0.0
      vertex -0.038268343236508955 0.0923879532511287 0.0
      vertex 0.0 0.0 0.34
    endloop
  endfacet
  facet normal -0.4243887845003505 0.8605753234207442 0.2816101424125145
    outer loop
      vertex -0.038268343236508955 0.0923879532511287 0.0
      vertex -0.04999999999999998 0.08660254037844388 0.0
      vertex 0.0 0.0 0.34
    endloop
  endfacet
  facet normal -0.5330856997021989 0.7978191301688751 0.2816101424125144
    outer loop
      vertex -0.04999999999999998 0.08660254037844388 0.0
      vertex -0.060876142900872066 0.07933533402912352 0.0
      vertex 0.0 0.0 0.34
    endloop
  endfacet
  facet normal -0.6326613707828637 0.7214120304025649 0.2816101424125144
    outer loop
      vertex -0.060876142900872066 0.07933533402912352 0.0
      vertex -0.07071067811865475 0.07071067811865477 0.0
      vertex 0.0 0.0 0.34
    endloop
  endfacet
  facet normal -0.7214120304025639 0.6326613707828648 0.2816101424125144
    outer loop
      vertex -0.07071067811865475 0.07071067811865477 0.0
      vertex -0.07933533402912352 0.06087614290087209 0.0
      vertex 0.0 0.0 0.34
    endloop
  endfacet
  facet normal -0.7978191301688754 0.5330856997021984 0.2816101424125145
    outer loop
      vertex -0.07933533402912352 0.06087614290087209 0.0
      vertex -0.08660254037844388 0.049999999999999996 0.0
      vertex 0.0 0.0 0.34
    endloop
  endfacet
  facet normal -0.8605753234207443 0.4243887845003503 0.2816101424125145
    outer loop
      vertex -0.08660254037844388 0.049999999999999996 0.0
      vertex -0.09238795325112868 0.03826834323650899 0.0
      vertex 0.0 0.0 0.34
    endloop
  endfacet
  facet normal -0.9086068342923288 0.30843045953290027 0.2816101424125144
    outer loop
      vertex -0.09238795325112868 0.03826834323650899 0.0
      vertex -0.09659258262890683 0.0258819045102521 0.0
      vertex 0.0 0.0 0.34
    endloop
  endfacet
  facet normal -0.9410918303157646 0.1871948038897646 0.28161014241251436
    outer loop
      vertex -0.09659258262890683 0.0258819045102521 0.0
      vertex -0.09914448613738104 0.0130526192220052 0.0
      vertex 0.0 0.0 0.34
    endloop
  endfacet
  facet normal -0.957474484202549 0.06275619325186944 0.28161014241251436
    outer loop
      vertex -0.09914448613738104 0.0130526192220052 0.0
      vertex -0.1 1.2246467991473533e-17 0.0
      vertex 0.0 0.0 0.34
    endloop
  endfacet
  facet normal -0.957474484202549 -0.06275619325186944 0.2816101424125144
    outer loop
      vertex -0.1 1.2246467991473533e-17 0.0
      vertex -0.09914448613738104 -0.013052619222005178 0.0
      vertex 0.0 0.0 0.34
    endloop
  endfacet
  facet normal -0.9410918303157648 -0.18719480388976362 0.2816101424125144
    outer loop
      vertex -0.09914448613738104 -0.013052619222005178 0.0
      vertex -0.09659258262890684 -0.02588190451025208 0.0
      vertex 0.0 0.0 0.34
    endloop
  endfacet
  facet normal -0.9086068342923287 -0.3084304595329002 0.2816101424125144
    outer loop
      vertex -0.09659258262890684 -0.02588190451025208 0.0
      vertex -0.0923879532511287 -0.03826834323650897 0.0
      vertex 0.0 0.0 0.34
    endloop
  endfacet
  facet normal -0.8605753234207443 -0.4243887845003503 0.2816101424125145
    outer loop
      vertex -0.0923879532511287 -0.03826834323650897 0.0
      vertex -0.08660254037844389 -0.049999999999999975 0.0
      vertex 0.0 0.0 0.34
    endloop
  endfacet
  facet normal -0.7978191301688747 -0.5330856997021993 0.2816101424125144
    outer loop
      vertex -0.08660254037844389 -0.049999999999999975 0.0
      vertex -0.07933533402912352 -0.060876142900872066 0.0
      vertex 0.0 0.0 0.34
    endloop
  endfacet
  facet normal -0.7214120304025645 -0.632661370782864 0.28161014241251436
    outer loop
      vertex -0.07933533402912352 -0.060876142900872066 0.0
      vertex -0.0707106781186548 -0.07071067811865471 0.0
      vertex 0.0 0.0 0.34
    endloop
  endfacet
  facet normal -0.6326613707828648 -0.7214120304025637 0.28161014241251436
    outer loop
      vertex -0.0707106781186548 -0.07071067811865471 0.0
      vertex -0.06087614290087209 -0.0793353340291235 0.0
      vertex 0.0 0.0 0.34
    endloop
  endfacet
  facet normal -0.5330856997021985 -0.7978191301688752 0.2816101424125144
    outer loop
      vertex -0.06087614290087209 -0.0793353340291235 0.0
      vertex -0.050000000000000044 -0.08660254037844384 0.0
      vertex 0.0 0.0 0.34
    endloop
  endfacet
  facet normal -0.42438878450035117 -0.8605753234207438 0.2816101424125144
    outer loop
      vertex -0.050000000000000044 -0.08660254037844384 0.0
      vertex -0.038268343236508955 -0.0923879532511287 0.0
      vertex 0.0 0.0 0.34
    endloop
  endfacet
  facet normal -0.30843045953290016 -0.9086068342923287 0.2816101424125144
    outer loop
      vertex -0.038268343236508955 -0.0923879532511287 0.0
      vertex -0.025881904510252064 -0.09659258262890684 0.0
      vertex 0.0 0.0 0.34
    endloop
  endfacet
  facet normal -0.18719480388976364 -0.9410918303157648 0.2816101424125145
    outer loop
      vertex -0.025881904510252064 -0.09659258262890684 0.0
      vertex -0.013052619222005164 -0.09914448613738104 0.0
      vertex 0.0 0.0 0.34
    endloop
  endfacet
  facet normal -0.06275619325186965 -0.957474484202549 0.28161014241251436
    outer loop
      vertex -0.013052619222005164 -0.09914448613738104 0.0
      vertex -1.8369701987210297e-17 -0.1 0.0
      vertex 0.0 0.0 0.34
    endloop
  endfacet
  facet normal 0.06275619325186864 -0.957474484202549 0.2816101424125144
    outer loop
      vertex -1.8369701987210297e-17 -0.1 0.0
      vertex 0.013052619222005128 -0.09914448613738105 0.0
      vertex 0.0 0.0 0.34
    endloop
  endfacet
  facet normal 0.1871948038897636 -0.9410918303157648 0.2816101424125144
    outer loop
      vertex 0.013052619222005128 -0.09914448613738105 0.0
      vertex 0.025881904510252032 -0.09659258262890685 0.0
      vertex 0.0 0.0 0.34
    endloop
  endfacet
  facet normal 0.30843045953290105 -0.9086068342923284 0.28161014241251436
    outer loop
      vertex 0.025881904510252032 -0.09659258262890685 0.0
      vertex 0.03826834323650892 -0.0923879532511287 0.0
      vertex 0.0 0.0 0.34
    endloop
  endfacet
  facet normal 0.42438878450034934 -0.8605753234207449 0.2816101424125144
    outer loop
      vertex 0.03826834323650892 -0.0923879532511287 0.0
      vertex 0.05000000000000002 -0.08660254037844387 0.0
      vertex 0.0 0.0 0.34
    endloop
  endfacet
  facet normal 0.5330856997021992 -0.797819130168875 0.2816101424125145
    outer loop
      vertex 0.05000000000000002 -0.08660254037844387 0.0
      vertex 0.06087614290087199 -0.07933533402912357 0.0
      vertex 0.0 0.0 0.34
    endloop
  endfacet
  facet normal 0.6326613707828637 -0.7214120304025649 0.2816101424125144
    outer loop
      vertex 0.06087614290087199 -0.07933533402912357 0.0
      vertex 0.07071067811865474 -0.07071067811865477 0.0
      vertex 0.0 0.0 0.34
    endloop
  endfacet
  facet normal 0.7214120304025639 -0.6326613707828648 0.28161014241251436
    outer loop
      vertex 0.07071067811865474 -0.07071067811865477 0.0
      vertex 0.0793353340291235 -0.06087614290087209 0.0
      vertex 0.0 0.0 0.34
    endloop
  endfacet
  facet normal 0.7978191301688752 -0.5330856997021985 0.2816101424125144
    outer loop
      vertex 0.0793353340291235 -0.06087614290087209 0.0
      vertex 0.08660254037844384 -0.050000000000000044 0.0
      vertex 0.0 0.0 0.34
    endloop
  endfacet
  facet normal 0.8605753234207438 -0.4243887845003514 0.2816101424125145
    outer loop
      vertex 0.08660254037844384 -0.050000000000000044 0.0
      vertex 0.0923879532511287 -0.03826834323650896 0.0
      vertex 0.0 0.0 0.34
    endloop
  endfacet
  facet normal 0.9086068342923286 -0.3084304595329002 0.2816101424125145
    outer loop
      vertex 0.0923879532511287 -0.03826834323650896 0.0
      vertex 0.09659258262890681 -0.025881904510252157 0.0
      vertex 0.0 0.0 0.34
    endloop
  endfacet
  facet normal 0.9410918303157647 -0.18719480388976434 0.2816101424125144
    outer loop
      vertex 0.09659258262890681 -0.025881904510252157 0.0
      vertex 0.09914448613738104 -0.01305261922200517 0.0
      vertex 0.0 0.0 0.34
    endloop
  endfacet
  facet normal 0.957474484202549 -0.06275619325186965 0.28161014241251436
    outer loop
      vertex 0.09914448613738104 -0.01305261922200517 0.0
      vertex 0.1 -2.4492935982947065e-17 0.0
      vertex 0.0 0.0 0.34
    endloop
  endfacet
  facet normal 0.0 0.0 -1.0
    outer loop
      vertex 0.0 0.0 0.0
      vertex 0.09914448613738104 0.013052619222005159 0.0
      vertex 0.1 0.0 0.0
    endloop
  endfacet
  facet normal 0.0 0.0 -1.0
    outer loop
      vertex 0.0 0.0 0.0
      vertex 0.09659258262890684 0.025881904510252074 0.0
      vertex 0.09914448613738104 0.013052619222005159 0.0
    endloop
  endfacet
  facet normal 0.0 0.0 -1.0
    outer loop
      vertex 0.0 0.0 0.0
      vertex 0.09238795325112868 0.03826834323650898 0.0
      vertex 0.09659258262890684 0.025881904510252074 0.0
    endloop
  endfacet
  facet normal 0.0 0.0 -1.0
    outer loop
      vertex 0.0 0.0 0.0
      vertex 0.08660254037844388 0.049999999999999996 0.0
      vertex 0.09238795325112868 0.03826834323650898 0.0
    endloop
  endfacet
  facet normal 0.0 0.0 -1.0
    outer loop
      vertex 0.0 0.0 0.0
      vertex 0.07933533402912352 0.060876142900872066 0.0
      vertex 0.08660254037844388 0.049999999999999996 0.0
    endloop
  endfacet
  facet normal 0.0 0.0 -1.0
    outer loop
      vertex 0.0 0.0 0.0
      vertex 0.07071067811865477 0.07071067811865475 0.0
      vertex 0.07933533402912352 0.060876142900872066 0.0
    endloop
  endfacet
  facet normal 0.0 0.0 -1.0
    outer loop
      vertex 0.0 0.0 0.0
      vertex 0.060876142900872066 0.07933533402912352 0.0
      vertex 0.07071067811865477 0.07071067811865475 0.0
    endloop
  endfacet
  facet normal 0.0 0.0 -1.0
    outer loop
      vertex 0.0 0.0 0.0
      vertex 0.05000000000000002 0.08660254037844387 0.0
      vertex 0.060876142900872066 0.07933533402912352 0.0
    endloop
  endfacet
  facet normal 0.0 0.0 -1.0
    outer loop
      vertex 0.0 0.0 0.0
      vertex 0.03826834323650899 0.09238795325112868 0.0
      vertex 0.05000000000000002 0.08660254037844387 0.0
    endloop
  endfacet
  facet normal 0.0 0.0 -1.0
    outer loop
      vertex 0.0 0.0 0.0
      vertex 0.025881904510252074 0.09659258262890684 0.0
      vertex 0.03826834323650899 0.09238795325112868 0.0
    endloop
  endfacet
  facet normal 0.0 0.0 -1.0
    outer loop
      vertex 0.0 0.0 0.0
      vertex 0.013052619222005173 0.09914448613738104 0.0
      vertex 0.025881904510252074 0.09659258262890684 0.0
    endloop
  endfacet
  facet normal 0.0 0.0 -1.0
    outer loop
      vertex 0.0 0.0 0.0
      vertex 6.123233995736766e-18 0.1 0.0
      vertex 0.013052619222005173 0.09914448613738104 0.0
    endloop
  endfacet
  facet normal 0.0 0.0 -1.0
    outer loop
      vertex 0.0 0.0 0.0
      vertex -0.01305261922200516 0.09914448613738104 0.0
      vertex 6.123233995736766e-18 0.1 0.0
    endloop
  endfacet
  facet normal 0.0 0.0 -1.0
    outer loop
      vertex 0.0 0.0 0.0
      vertex -0.025881904510252064 0.09659258262890684 0.0
      vertex -0.01305261922200516 0.09914448613738104 0.0
    endloop
  endfacet
  facet normal 0.0 0.0 -1.0
    outer loop
      vertex 0.0 0.0 0.0
      vertex -0.038268343236508955 0.0923879532511287 0.0
      vertex -0.025881904510252064 0.09659258262890684 0.0
    endloop
  endfacet
  facet normal 0.0 0.0 -1.0
    outer loop
      vertex 0.0 0.0 0.0
      vertex -0.04999999999999998 0.08660254037844388 0.0
      vertex -0.038268343236508955 0.0923879532511287 0.0
    endloop
  endfacet
  facet normal 0.0 0.0 -1.0
    outer loop
      vertex 0.0 0.0 0.0
      vertex -0.060876142900872066 0.07933533402912352 0.0
      vertex -0.04999999999999998 0.08660254037844388 0.0
    endloop
  endfacet
  facet normal 0.0 0.0 -1.0
    outer loop
      vertex 0.0 0.0 0.0
      vertex -0.07071067811865475 0.07071067811865477 0.0
      vertex -0.060876142900872066 0.07933533402912352 0.0
    endloop
  endfacet
  facet normal 0.0 0.0 -1.0
    outer loop
      vertex 0.0 0.0 0.0
      vertex -0.07933533402912352 0.06087614290087209 0.0
      vertex -0.07071067811865475 0.07071067811865477 0.0
    endloop
  endfacet
  facet normal 0.0 0.0 -1.0
    outer loop
      vertex 0.0 0.0 0.0
      vertex -0.08660254037844388 0.049999999999999996 0.0
      vertex -0.07933533402912352 0.06087614290087209 0.0
    endloop
  endfacet
  facet normal 0.0 0.0 -1.0
    outer loop
      vertex 0.0 0.0 0.0
      vertex -0.09238795325112868 0.03826834323650899 0.0
      vertex -0.08660254037844388 0.049999999999999996 0.0
    endloop
  endfacet
  facet normal 0.0 0.0 -1.0
    outer loop
      vertex 0.0 0.0 0.0
      vertex -0.09659258262890683 0.0258819045102521 0.0
      vertex -0.09238795325112868 0.03826834323650899 0.0
    endloop
  endfacet
  facet normal 0.0 0.0 -1.0
    outer loop
      vertex 0.0 0.0 0.0
      vertex -0.09914448613738104 0.0130526192220052 0.0
      vertex -0.09659258262890683 0.0258819045102521 0.0
    endloop
  endfacet
  facet normal 0.0 0.0 -1.0
    outer loop
      vertex 0.0 0.0 0.0
      vertex -0.1 1.2246467991473533e-17 0.0
      vertex -0.09914448613738104 0.0130526192220052 0.0
    endloop
  endfacet
  facet normal -0.0 0.0 -1.0
    outer loop
      vertex 0.0 0.0 0.0
      vertex -0.09914448613738104 -0.013052619222005178 0.0
      vertex -0.1 1.2246467991473533e-17 0.0
    endloop
  endfacet
  facet normal 0.0 0.0 -1.0
    outer loop
      vertex 0.0 0.0 0.0
      vertex -0.09659258262890684 -0.02588190451025208 0.0
      vertex -0.09914448613738104 -0.013052619222005178 0.0
    endloop
  endfacet
  facet normal 0.0 0.0 -1.0
    outer loop
      vertex 0.0 0.0 0.0
      vertex -0.0923879532511287 -0.03826834323650897 0.0
      vertex -0.09659258262890684 -0.02588190451025208 0.0
    endloop
  endfacet
  facet normal 0.0 0.0 -1.0
    outer loop
      vertex 0.0 0.0 0.0
      vertex -0.08660254037844389 -0.049999999999999975 0.0
      vertex -0.0923879532511287 -0.03826834323650897 0.0
    endloop
  endfacet
  facet normal 0.0 0.0 -1.0
    outer loop
      vertex 0.0 0.0 0.0
      vertex -0.07933533402912352 -0.060876142900872066 0.0
      vertex -0.08660254037844389 -0.049999999999999975 0.0
    endloop
  endfacet
  facet normal 0.0 0.0 -1.0
    outer loop
      vertex 0.0 0.0 0.0
      vertex -0.0707106781186548 -0.07071067811865471 0.0
      vertex -0.07933533402912352 -0.060876142900872066 0.0
    endloop
  endfacet
  facet normal 0.0 0.0 -1.0
    outer loop
      vertex 0.0 0.0 0.0
      vertex -0.06087614290087209 -0.0793353340291235 0.0
      vertex -0.0707106781186548 -0.07071067811865471 0.0
    endloop
  endfacet
  facet normal 0.0 0.0 -1.0
    outer loop
      vertex 0.0 0.0 0.0
      vertex -0.050000000000000044 -0.08660254037844384 0.0
      vertex -0.06087614290087209 -0.0793353340291235 0.0
    endloop
  endfacet
  facet normal 0.0 0.0 -1.0
    outer loop
      vertex 0.0 0.0 0.0
      vertex -0.038268343236508955 -0.0923879532511287 0.0
      vertex -0.050000000000000044 -0.08660254037844384 0.0
    endloop
  endfacet
  facet normal 0.0 0.0 -1.0
    outer loop
      vertex 0.0 0.0 0.0
      vertex -0.025881904510252064 -0.09659258262890684 0.0
      vertex -0.038268343236508955 -0.0923879532511287 0.0
    endloop
  endfacet
  facet normal 0.0 0.0 -1.0
    outer loop
      vertex 0.0 0.0 0.0
      vertex -0.013052619222005164 -0.09914448613738104 0.0
      vertex -0.025881904510252064 -0.09659258262890684 0.0
    endloop
  endfacet
  facet normal 0.0 0.0 -1.0
    outer loop
      vertex 0.0 0.0 0.0
      vertex -1.8369701987210297e-17 -0.1 0.0
      vertex -0.013052619222005164 -0.09914448613738104 0.0
    endloop
  endfacet
  facet normal 0.0 -0.0 -1.0
    outer loop
      vertex 0.0 0.0 0.0
      vertex 0.013052619222005128 -0.09914448613738105 0.0
      vertex -1.8369701987210297e-17 -0.1 0.0
    endloop
  endfacet
  facet normal 0.0 0.0 -1.0
    outer loop
      vertex 0.0 0.0 0.0
      vertex 0.025881904510252032 -0.09659258262890685 0.0
      vertex 0.013052619222005128 -0.09914448613738105 0.0
    endloop
  endfacet
  facet normal 0.0 0.0 -1.0
    outer loop
      vertex 0.0 0.0 0.0
      vertex 0.03826834323650892 -0.0923879532511287 0.0
      vertex 0.025881904510252032 -0.09659258262890685 0.0
    endloop
  endfacet
  facet normal 0.0 0.0 -1.0
    outer loop
      vertex 0.0 0.0 0.0
      vertex 0.05000000000000002 -0.08660254037844387 0.0
      vertex 0.03826834323650892 -0.0923879532511287 0.0
    endloop
  endfacet
  facet normal 0.0 0.0 -1.0
    outer loop
      vertex 0.0 0.0 0.0
      vertex 0.06087614290087199 -0.07933533402912357 0.0
      vertex 0.05000000000000002 -0.08660254037844387 0.0
    endloop
  endfacet
  facet normal 0.0 0.0 -1.0
    outer loop
      vertex 0.0 0.0 0.0
      vertex 0.07071067811865474 -0.07071067811865477 0.0
      vertex 0.06087614290087199 -0.07933533402912357 0.0
    endloop
  endfacet
  facet normal 0.0 0.0 -1.0
    outer loop
      vertex 0.0 0.0 0.0
      vertex 0.0793353340291235 -0.06087614290087209 0.0
      vertex 0.07071067811865474 -0.07071067811865477 0.0
    endloop
  endfacet
  facet normal 0.0 0.0 -1.0
    outer loop
      vertex 0.0 0.0 0.0
      vertex 0.08660254037844384 -0.050000000000000044 0.0
      vertex 0.0793353340291235 -0.06087614290087209 0.0
    endloop
  endfacet
  facet normal 0.0 0.0 -1.0
    outer loop
      vertex 0.0 0.0 0.0
      vertex 0.0923879532511287 -0.03826834323650896 0.0
      vertex 0.08660254037844384 -0.050000000000000044 0.0
    endloop
  endfacet
  facet normal 0.0 0.0 -1.0
    outer loop
      vertex 0.0 0.0 0.0
      vertex 0.09659258262890681 -0.025881904510252157 0.0
      vertex 0.0923879532511287 -0.03826834323650896 0.0
    endloop
  endfacet
  facet normal 0.0 0.0 -1.0
    outer loop
      vertex 0.0 0.0 0.0
      vertex 0.09914448613738104 -0.01305261922200517 0.0
      vertex 0.09659258262890681 -0.025881904510252157 0.0
    endloop
  endfacet
  facet normal 0.0 0.0 -1.0
    outer loop
      vertex 0.0 0.0 0.0
      vertex 0.1 -2.4492935982947065e-17 0.0
      vertex 0.09914448613738104 -0.01305261922200517 0.0
    endloop
  endfacet
endsolid traffic_cone
